<?xml version="1.0" encoding="UTF-8" standalone="no"?>
<svg
   xmlns:dc="http://purl.org/dc/elements/1.1/"
   xmlns:cc="http://creativecommons.org/ns#"
   xmlns:rdf="http://www.w3.org/1999/02/22-rdf-syntax-ns#"
   xmlns:svg="http://www.w3.org/2000/svg"
   xmlns="http://www.w3.org/2000/svg"
   id="svg8"
   version="1.1"
   viewBox="0 0 210 297"
   height="297mm"
   width="210mm">
  <defs
     id="defs2" />
  <metadata
     id="metadata5">
    <rdf:RDF>
      <cc:Work
         rdf:about="">
        <dc:format>image/svg+xml</dc:format>
        <dc:type
           rdf:resource="http://purl.org/dc/dcmitype/StillImage" />
        <dc:title></dc:title>
      </cc:Work>
    </rdf:RDF>
  </metadata>
  <g
     id="layer1">
    <path
       style="stroke-width:0.26458332"
       d="m 27.364002,15.496378 c 3.337348,0.371499 6.533496,1.429792 9.696415,2.519753 2.951509,1.112895 5.870506,2.306488 8.838258,3.371441 3.202662,1.024375 6.560926,1.04459 9.886135,1.03741 5.181907,-0.07251 10.364549,-0.04113 15.54648,0.0098 7.235748,0.04128 14.471412,0.0094 21.706776,-0.06708 4.482084,-0.0674 8.964464,-0.0972 13.446834,-0.13809 2.6422,-0.01157 5.28398,-0.07915 7.92616,-0.08659 2.12121,-0.03139 4.24192,-0.0048 6.36263,0.04036 3.11127,0.04923 6.22305,0.03219 9.33432,-0.005 0.99859,-0.01198 1.99615,-0.02284 2.99344,-0.0749 0,0 -12.27063,13.066893 -12.27063,13.066893 v 0 c -0.95028,-0.05501 -1.90101,-0.06163 -2.85277,-0.07491 -3.1081,-0.03802 -6.21671,-0.05352 -9.32482,-0.0051 -2.14601,0.04393 -4.29203,0.07205 -6.43851,0.04085 -2.588722,-0.0065 -5.177045,-0.07296 -7.765776,-0.08513 -4.390541,-0.0426 -8.781024,-0.07892 -13.171123,-0.157274 -7.199053,-0.09109 -14.398995,-0.135422 -21.598265,-0.0313 -5.31573,0.113559 -10.6299,0.27387 -15.945331,0.389969 -3.503832,-0.03446 -7.007267,-0.269102 -10.347262,-1.429385 -2.948969,-1.072581 -5.86392,-2.22224 -8.776332,-3.389103 -3.154175,-1.066575 -6.337005,-1.968339 -9.692806,-2.050045 0,0 12.446177,-12.882539 12.446177,-12.882539 z"
       id="path42" />
    <path
       style="stroke-width:0.26458332"
       d="m 76.650259,24.533763 c 0.226161,2.510305 0.514966,5.013739 0.689007,7.528617 0.158644,1.336902 0.564557,2.619814 0.749162,3.953722 0.01818,1.495155 0.425905,2.937414 0.65844,4.405275 0.206917,1.995342 0.17432,4.007686 0.147333,6.010971 -0.01045,2.111055 -0.04304,4.221911 -0.04546,6.333 0.006,2.239724 -0.01815,4.479322 -0.0092,6.719083 -0.0097,2.70414 -0.03001,5.408218 -0.03928,8.112366 -0.02027,2.608 0.03799,5.215718 0.04568,7.82356 0.02577,1.843574 0.02926,3.6869 0.02566,5.53054 -0.01823,2.223214 -0.04341,4.446278 -0.02835,6.669582 -5.29e-4,2.148912 0.01958,4.297627 0.0072,6.446547 -0.0088,2.24042 -0.01847,4.480353 0.0055,6.720734 0.14324,9.41501 0.01736,4.00957 -13.519618,16.48321 -3.165766,-0.27994 -6.346817,-0.39373 -9.522841,-0.50722 -4.143928,-0.13292 -8.290975,-0.12963 -12.436483,-0.10122 -2.610112,0.003 -5.361731,0.0251 -7.745679,-1.14732 -2.245252,-1.41036 -4.266253,-3.1536 -6.313501,-4.83235 -2.659078,-2.10063 -4.440631,-4.87898 -5.679652,-7.98998 -1.079901,-2.69135 -1.283361,-5.50946 -1.310407,-8.371847 0.04132,-3.085819 0.112042,-6.170776 0.142698,-9.25677 0.05682,-1.976877 -0.162841,-3.962284 0.09613,-5.927971 3.269641,-9.346348 10.357731,-12.81003 18.230755,-13.88945 1.974122,-0.237368 3.963511,-0.142732 5.944459,-0.07823 3.205552,-0.125431 4.43533,0.445783 7.072927,2.178227 2.908519,1.976612 5.551662,4.321742 8.230534,6.594608 1.635095,1.255789 0.829198,0.697428 2.402541,1.69673 0,0 -12.886333,12.153987 -12.886333,12.153987 v 0 c -1.5865,-1.19163 -0.778698,-0.551436 -2.41522,-1.930868 -2.59651,-2.247392 -5.247992,-4.469495 -8.167277,-6.289339 -0.656386,-0.386339 -1.366179,-0.853715 -2.097336,-1.105442 -1.398381,-0.481449 -2.920664,-0.253749 -4.365112,-0.331653 -1.89752,-0.01474 -3.808788,-0.04986 -5.681811,0.309631 -0.951849,0.211826 -2.021898,0.409557 -2.907015,0.838634 -0.267246,0.129554 -0.96023,0.694079 -0.743382,0.491146 11.680919,-10.931321 17.104126,-14.806347 11.946537,-11.090515 -0.132318,0.159583 -0.306924,0.292015 -0.396957,0.478747 -0.564261,1.170311 -0.0056,3.757422 -0.258749,5.069671 -0.05475,3.084626 -0.157985,6.168345 -0.194704,9.253342 0.0047,2.665327 0.04568,5.344466 0.950635,7.888988 0.928975,2.907475 2.582039,5.37731 4.975939,7.304831 1.994873,1.524653 3.968697,3.138583 6.183699,4.332103 2.223553,0.83156 4.675798,0.81121 7.017694,0.843 4.132651,0.0418 8.264525,0.11084 12.396197,0.21131 1.641904,0.0333 7.074541,0.39427 8.461362,-0.22585 0.20419,-0.0913 0.327189,-0.30506 0.490781,-0.4576 -4.219347,3.92853 -8.464857,7.82915 -12.658042,11.7856 -0.0564,0.0532 0.514434,0.0383 0.648224,-0.82063 0.133836,-0.85928 -0.0886,-1.77473 0.028,-2.63716 0.02365,-2.24324 0.01471,-4.48604 0.0055,-6.72932 -0.01254,-2.15263 0.0079,-4.30505 0.0072,-6.457674 0.01479,-2.208638 -0.0097,-4.417028 -0.02837,-6.625574 -0.0037,-1.856935 1.7e-4,-3.713567 0.02569,-5.570442 0.0078,-2.631585 0.06598,-5.263044 0.04618,-7.894785 -0.0092,-2.682754 -0.02934,-5.365427 -0.04178,-8.04816 0.0063,-2.235972 -0.0232,-4.471778 -0.01299,-6.707695 0.006,-2.114277 -0.0051,-4.228626 0.0373,-6.342658 0.0089,-1.915752 0.0641,-3.834865 -0.07495,-5.747612 -0.156737,-1.496224 -0.610045,-2.934142 -0.714828,-4.427723 -0.08785,-1.402926 -0.45797,-2.738461 -0.709533,-4.117162 -0.04817,-2.453746 -0.190537,-4.915284 -0.660799,-7.328959 0,0 13.996654,-11.178586 13.996654,-11.178586 z"
       id="path44" />
    <path
       style="stroke-width:0.26458332"
       d="m 119.49896,41.00595 c 2.75049,0.122312 5.50541,0.08116 8.25791,0.08236 3.61264,0.01879 7.22512,0.06442 10.83784,0.06565 4.65386,0.04234 9.30743,0.06355 13.96133,0.02164 3.26834,-0.04848 6.53681,-0.0798 9.80547,-0.10042 1.09847,-0.01058 2.19686,-0.02754 3.29527,-0.04329 0,0 -12.21501,13.00766 -12.21501,13.00766 v 0 c -1.0713,-0.0158 -2.14259,-0.03281 -3.21396,-0.04329 -3.2058,-0.02045 -6.4114,-0.05153 -9.61687,-0.100417 -4.66743,-0.04276 -9.33456,-0.01961 -14.00196,0.02162 -3.65381,0.0013 -7.30739,0.04701 -10.96114,0.06565 -2.80411,0.0013 -5.61034,-0.03756 -8.41259,0.08236 0,0 12.26371,-13.059529 12.26371,-13.059529 z"
       id="path46" />
    <path
       style="stroke-width:0.26458332"
       d="m 149.97481,44.315165 c 0.27458,3.522596 0.49695,7.044494 0.60149,10.576526 0.0638,3.522953 0.0368,7.046571 0.0629,10.569773 -0.13245,2.450012 0.14885,4.865592 0.5016,7.282778 0.49798,1.96324 0.86751,3.929634 1.02291,5.951095 0.10664,2.155278 0.78773,4.208405 1.22396,6.30486 0.45477,3.246569 0.32184,6.537626 0.26971,9.804897 -0.0977,3.819644 -0.0377,7.640236 -0.0373,11.460276 0.002,2.15579 0.0972,4.31037 0.0927,6.46607 0.0865,9.31321 -2.97407,6.72589 -14.23066,16.73179 -2.19935,0.53712 -4.4789,0.35701 -6.7179,0.27776 -2.89901,-0.22989 -5.8331,0.0548 -8.71809,-0.29881 -2.74233,-0.16489 -4.81551,-1.65799 -6.91544,-3.2893 -2.65079,-2.11799 -4.68565,-4.76234 -6.44935,-7.62996 -1.35115,-2.32361 -2.98327,-4.46012 -4.44151,-6.71577 -1.1722,-1.83197 -1.72561,-3.94308 -2.14899,-6.05124 -0.4554,-2.31084 -0.90808,-4.62389 -1.30285,-6.946101 -0.2911,-1.637334 -0.41289,-3.259196 -0.10663,-4.894575 11.45095,-12.19363 8.5844,-12.818144 17.62103,-12.222062 1.99712,0.142772 3.9997,0.169802 6.00111,0.16872 0.27281,0.05962 0.54563,0.119248 0.81844,0.178869 0,0 -12.46362,12.872987 -12.46362,12.872987 v 0 c -0.2021,-0.01341 -0.40421,-0.02684 -0.60632,-0.04026 -2.00806,-0.05491 -4.01405,-0.160213 -6.02194,-0.219337 -0.78212,-0.01273 -1.65379,-0.09283 -2.41785,0.136608 -0.7545,0.22657 -0.88683,0.675796 -0.8331,0.626374 4.23849,-3.899257 8.446,-7.832069 12.669,-11.748106 -1.3112,0.847585 -0.81833,2.706823 -0.75522,4.028305 0.28084,2.308297 0.80775,4.566907 1.21902,6.852881 0.45011,1.900017 0.75659,3.867814 1.74242,5.588277 1.41475,2.30991 3.01395,4.49038 4.39944,6.81926 1.54153,2.73249 3.43997,5.18536 5.92646,7.13529 1.98362,1.35543 3.91399,2.39925 6.36663,2.51234 2.84484,0.21941 5.70414,0.18068 8.55519,0.24557 2.02482,-0.0161 4.3293,0.15566 5.99289,-1.19479 -4.20022,3.79534 -8.48441,7.49977 -12.60066,11.38603 -0.1856,0.17523 0.52868,-0.0494 0.74186,-0.18982 0.94764,-0.624 0.45817,-2.27442 0.5561,-3.16456 -0.0112,-2.20634 0.0765,-4.41182 0.0898,-6.61807 0.0246,-3.84573 0.1461,-7.6908 0.1243,-11.53704 -0.004,-3.1174 0.0555,-6.250404 -0.2853,-9.353485 -0.37156,-2.182929 -1.12321,-4.276212 -1.34461,-6.487231 -0.10552,-1.98991 -0.36734,-3.938252 -0.96741,-5.846874 -0.29373,-2.514616 -0.75711,-5.015489 -0.54496,-7.559389 0.0756,-3.532407 0.1206,-7.066677 0.0681,-10.5997 -0.0701,-3.420108 -0.17868,-6.857193 -0.74832,-10.236925 0,0 13.991,-11.133934 13.991,-11.133934 z"
       id="path48" />
    <path
       style="stroke-width:0.26458332"
       d="m 40.314038,150.34958 c -0.26906,5.28729 -0.345535,10.59269 -0.150971,15.88351 0.29238,4.47237 0.652669,8.93791 0.790805,13.41874 0.07597,2.82551 0.107177,5.6518 0.136626,8.4781 0.02681,1.6086 -0.0091,3.2169 -0.01331,4.82547 0.0127,1.74201 -0.0076,3.48383 -0.0053,5.22582 0.0026,1.66924 0.02868,3.33844 0.0076,5.0076 -0.0016,0.301 -0.003,0.60199 -0.0046,0.90299 0,0 -14.114026,10.94782 -14.114026,10.94782 v 0 c -0.0016,-0.29867 -0.003,-0.59734 -0.0044,-0.89601 -0.02133,-1.67251 0.006,-3.34507 0.0069,-5.01766 7.94e-4,-1.73791 -0.02313,-3.47562 -0.01254,-5.21356 -0.0035,-1.6224 -0.03395,-3.24502 0.03563,-4.86668 0.09022,-2.87113 0.173189,-5.74348 0.141899,-8.61639 -0.07804,-4.52859 -0.299302,-9.05035 -0.559004,-13.57203 -0.188873,-5.18792 -0.02098,-10.38433 -0.359596,-15.56733 0,0 14.104267,-10.94039 14.104267,-10.94039 z"
       id="path50" />
    <path
       style="stroke-width:0.26458332"
       d="m 46.651637,151.58273 c 4.235085,-1.68012 8.610354,-2.85839 13.095719,-3.62454 3.915518,-0.49679 7.910859,-0.77627 11.838627,-0.28513 3.098731,0.53945 5.899179,1.79549 8.181594,3.95542 1.629839,1.96388 2.012373,4.83018 2.683261,7.27208 0.565595,2.67773 1.174465,5.50411 0.845566,8.25806 -0.07014,0.58732 -0.221437,1.16208 -0.332158,1.74312 -0.223432,0.56621 -0.389196,1.15873 -0.670298,1.69864 -0.29306,0.56289 -0.582456,1.15618 -1.043228,1.59254 -9.446633,8.94609 -10.873052,12.33597 -20.227043,15.49124 -3.780386,1.06891 -7.704066,1.21234 -11.604681,1.13891 -0.367935,0.0155 -2.924119,-0.27979 -3.085565,0.0541 -0.09098,0.18817 0.139001,0.70208 0.288948,0.55648 13.64502,-13.2498 6.863961,-15.1654 14.108015,-12.57999 6.118823,2.03109 12.250869,3.97958 18.141024,6.61704 4.921734,2.73792 6.923844,5.46962 8.334777,10.82663 0.666673,3.12043 0.424246,6.31463 0.200035,9.46779 -0.01831,3.2248 -1.14218,6.05841 -2.603285,8.87294 -1.063168,2.02696 -2.380957,3.946 -4.094166,5.48373 -14.310542,12.84469 -8.692647,9.67269 -15.734305,13.46533 -2.816981,1.97563 -6.131835,2.69158 -9.320095,3.78693 -3.39693,1.06488 -7.003622,0.93107 -10.520461,0.87937 -3.988705,-0.11572 -8.07044,0.0748 -11.95552,-1.02817 -0.699201,-0.1985 -1.367753,-0.49233 -2.05163,-0.73849 -2.463009,-1.12368 -4.604139,-2.77574 -6.983934,-4.05235 -1.047209,-0.3773 -2.107423,-0.74005 -3.203593,-0.95867 0,0 12.575715,-12.76474 12.575715,-12.76474 v 0 c 1.209595,0.34354 2.431568,0.7064 3.528221,1.33596 2.193835,1.31838 4.070514,3.1308 6.475415,4.08761 4.390573,1.42163 8.964999,1.54902 13.553294,1.38967 3.467751,-0.0951 6.965564,-0.19841 10.264034,-1.40303 3.167073,-0.97737 6.235216,-2.1141 8.97672,-4.03658 5.629193,-4.00508 1.444226,-1.10525 -10.393399,9.68524 -0.385638,0.35152 0.797766,-0.67332 1.181938,-1.02645 1.300311,-1.19524 2.543019,-2.44024 3.304302,-4.06323 1.505673,-2.5307 2.881659,-5.12677 2.855712,-8.15215 0.350152,-3.04683 0.742188,-6.12304 0.359531,-9.1878 -0.956923,-4.84312 -2.7359,-7.34833 -7.0896,-9.82506 -5.791917,-2.80172 -11.909007,-4.79727 -18.197142,-6.16839 -7.593716,-1.70161 -3.014437,-0.094 9.677448,-13.97542 0.140343,-0.1535 0.31755,0.28441 0.513265,0.35478 0.938194,0.33736 2.091206,0.002 3.046272,0.22184 3.705879,0.11965 7.425264,-0.1383 10.943902,-1.41063 1.568297,-0.64289 2.397564,-0.90593 3.83876,-1.79602 0.593328,-0.36643 2.207543,-1.6959 1.704867,-1.21255 -20.565446,19.775 -12.630126,12.76172 -9.266433,7.83534 0.336605,-1.11613 0.642397,-1.88647 0.712036,-3.05893 0.122854,-2.06844 -0.351526,-4.17848 -0.732057,-6.1931 -0.367533,-1.33254 -0.806871,-2.64009 -1.159669,-3.97646 -0.071,-0.26893 -0.337696,-1.46555 -0.50406,-1.80377 -0.125622,-0.25538 -0.317929,-0.47215 -0.476893,-0.70822 -1.974927,-1.95425 -4.498758,-2.89849 -7.248303,-3.21181 -3.761192,-0.27342 -7.549705,-0.22982 -11.277015,0.40495 -4.552466,0.90332 -8.98706,2.24465 -13.166389,4.29601 0,0 11.711924,-13.53008 11.711924,-13.53008 z"
       id="path52" />
    <path
       style="stroke-width:0.26458332"
       d="m 136.20004,172.36737 c -2.59728,0.98258 -5.21744,1.95463 -7.46997,3.60997 -0.55361,0.50147 -1.25383,0.79136 -1.84373,1.23886 -0.26112,0.19809 -0.973,0.87864 -0.72849,0.66039 22.11689,-19.74179 14.94477,-13.85148 10.74762,-9.45476 -1.59337,1.68512 -2.59098,3.6286 -3.22557,5.83406 -0.66297,2.68978 -1.39025,5.36213 -2.1929,8.01351 -0.87209,2.52085 -2.13492,4.84659 -2.71443,7.46218 -0.39138,2.48192 -0.23667,5.00056 -0.16627,7.49958 -0.19072,3.0521 0.76866,5.66529 2.25085,8.27223 1.88552,3.02284 4.64143,5.24343 7.60006,7.1436 1.87048,1.36023 3.9268,2.25256 6.12896,2.90728 2.49418,1.1262 5.12739,1.5263 7.83061,1.75943 4.71286,0.25129 9.43604,0.17297 14.15224,0.0769 3.27727,-0.0738 6.55453,-0.1466 9.83177,-0.22139 1.17486,-0.0221 0.60721,-0.0131 1.70292,-0.0276 0,0 -12.25567,13.04621 -12.25567,13.04621 v 0 c -1.05696,-0.0184 -0.51058,-0.008 -1.63912,-0.0309 -3.17892,-0.0641 -6.35814,-0.0781 -9.5377,-0.0667 -4.7992,0.0141 -9.60379,0.1624 -14.39927,-0.0719 -2.85635,-0.26239 -5.63916,-0.8016 -8.31865,-1.85687 -2.26388,-0.84503 -4.39473,-1.89884 -6.3257,-3.37374 -3.08164,-2.14393 -5.92727,-4.66311 -8.06507,-7.77591 -1.70302,-2.73665 -3.0904,-5.54971 -2.93703,-8.86431 -0.0927,-2.5909 -0.25661,-5.19292 -0.0439,-7.78135 0.3598,-3.0185 1.28312,-4.99733 2.61364,-7.6974 0.85767,-2.58641 1.529,-5.21631 2.1854,-7.85723 0.47636,-2.36295 1.10534,-4.61873 2.74172,-6.47592 0.51592,-0.71996 0.77391,-1.16065 1.43748,-1.7617 5.85811,-5.30626 10.24724,-10.36141 16.5668,-14.19238 2.54487,-1.36892 5.23322,-2.46021 7.96291,-3.40306 0,0 -11.88951,13.38891 -11.88951,13.38891 z"
       id="path54" />
    <path
       transform="matrix(0.69270094,0,0,0.67059281,28.848865,100.50814)"
       style="stroke-width:0.26458332"
       d="m 157.83852,235.01832 -27.45957,18.58446 -0.25781,33.15634 -26.16034,-20.37268 -31.613228,10.00067 11.291585,-31.17546 -19.280233,-26.97559 33.138922,1.10519 19.697384,-26.67251 9.1894,31.85851 z"
       id="path86" />
    <g
       id="g92">
      <path
         points="127.2943,156.35524 148.08955,158.97845 148.08955,144.80342 127.2943,139.48294 "
         d="m 127.2943,139.48294 v 16.8723 l 20.79525,2.62321 v -14.17503 z"
         style="fill:#353564;fill-rule:evenodd;stroke:none;stroke-linejoin:round"
         id="path94" />
      <path
         points="192.11659,132.58038 192.11659,152.952 148.08955,158.97845 148.08955,144.80342 "
         d="m 148.08955,144.80342 44.02704,-12.22304 V 152.952 l -44.02704,6.02645 z"
         style="fill:#e9e9ff;fill-rule:evenodd;stroke:none;stroke-linejoin:round"
         id="path104" />
      <path
         points="172.65144,120.59447 192.11659,132.58038 148.08955,144.80342 127.2943,139.48294 "
         d="m 127.2943,139.48294 45.35714,-18.88847 19.46515,11.98591 -44.02704,12.22304 z"
         style="fill:#4d4d9f;fill-rule:evenodd;stroke:none;stroke-linejoin:round"
         id="path96" />
      <path
         points="172.65144,147.04246 192.11659,152.952 148.08955,158.97845 127.2943,156.35524 "
         d="m 127.2943,156.35524 45.35714,-9.31278 19.46515,5.90954 -44.02704,6.02645 z"
         style="fill:#afafde;fill-rule:evenodd;stroke:none;stroke-linejoin:round"
         id="path102" />
      <path
         points="172.65144,147.04246 192.11659,152.952 192.11659,132.58038 172.65144,120.59447 "
         d="m 172.65144,120.59447 v 26.44799 l 19.46515,5.90954 v -20.37162 z"
         style="fill:#d7d7ff;fill-rule:evenodd;stroke:none;stroke-linejoin:round"
         id="path100" />
      <path
         points="172.65144,120.59447 172.65144,147.04246 127.2943,156.35524 127.2943,139.48294 "
         d="m 127.2943,139.48294 45.35714,-18.88847 v 26.44799 l -45.35714,9.31278 z"
         style="fill:#8686bf;fill-rule:evenodd;stroke:none;stroke-linejoin:round"
         id="path98" />
    </g>
  </g>
</svg>
